<mxfile host="app.diagrams.net" modified="2023-04-04T05:33:49.643Z" agent="Mozilla/5.0 (Windows NT 10.0; Win64; x64) AppleWebKit/537.36 (KHTML, like Gecko) Chrome/110.0.0.0 YaBrowser/23.3.0.2246 Yowser/2.5 Safari/537.36" etag="_slScUoZQ4tNpdPMa-SU" version="21.1.4" type="github">
  <diagram name="Page-1" id="42789a77-a242-8287-6e28-9cd8cfd52e62">
    <mxGraphModel dx="2486" dy="791" grid="1" gridSize="10" guides="1" tooltips="1" connect="1" arrows="1" fold="1" page="1" pageScale="1" pageWidth="1100" pageHeight="850" background="none" math="0" shadow="0">
      <root>
        <mxCell id="0" />
        <mxCell id="1" parent="0" />
        <mxCell id="lBq8-uqIJ8_SC7uOZpQ2-3" value="&lt;font style=&quot;font-size: 20px;&quot;&gt;OpenVPN Client&lt;br&gt;(Windows)&lt;br&gt;&lt;/font&gt;" style="rounded=0;whiteSpace=wrap;html=1;" parent="1" vertex="1">
          <mxGeometry x="760" y="600" width="210" height="60" as="geometry" />
        </mxCell>
        <mxCell id="lBq8-uqIJ8_SC7uOZpQ2-8" value="ip&amp;nbsp;62.109.2.192" style="text;html=1;align=center;verticalAlign=middle;resizable=0;points=[];autosize=1;strokeColor=none;fillColor=none;" parent="1" vertex="1">
          <mxGeometry x="470" y="280" width="110" height="30" as="geometry" />
        </mxCell>
        <mxCell id="lBq8-uqIJ8_SC7uOZpQ2-10" value="OpenVPN туннель&lt;br&gt;port 1194" style="text;html=1;align=center;verticalAlign=middle;resizable=0;points=[];autosize=1;strokeColor=none;fillColor=none;" parent="1" vertex="1">
          <mxGeometry x="620" y="530" width="130" height="40" as="geometry" />
        </mxCell>
        <mxCell id="lBq8-uqIJ8_SC7uOZpQ2-12" value="Internet" style="ellipse;shape=cloud;whiteSpace=wrap;html=1;" parent="1" vertex="1">
          <mxGeometry x="720" y="80" width="240" height="140" as="geometry" />
        </mxCell>
        <mxCell id="lBq8-uqIJ8_SC7uOZpQ2-13" value="" style="endArrow=classic;startArrow=classic;html=1;rounded=0;exitX=1;exitY=0;exitDx=0;exitDy=0;" parent="1" source="lBq8-uqIJ8_SC7uOZpQ2-4" target="lBq8-uqIJ8_SC7uOZpQ2-12" edge="1">
          <mxGeometry width="50" height="50" relative="1" as="geometry">
            <mxPoint x="310" y="150" as="sourcePoint" />
            <mxPoint x="360" y="100" as="targetPoint" />
          </mxGeometry>
        </mxCell>
        <mxCell id="lBq8-uqIJ8_SC7uOZpQ2-14" value="" style="endArrow=none;dashed=1;html=1;dashPattern=1 3;strokeWidth=2;rounded=0;entryX=0.677;entryY=0.944;entryDx=0;entryDy=0;entryPerimeter=0;" parent="1" target="lBq8-uqIJ8_SC7uOZpQ2-12" edge="1">
          <mxGeometry width="50" height="50" relative="1" as="geometry">
            <mxPoint x="900" y="600" as="sourcePoint" />
            <mxPoint x="950" y="550" as="targetPoint" />
          </mxGeometry>
        </mxCell>
        <mxCell id="lBq8-uqIJ8_SC7uOZpQ2-15" value="WAN" style="text;html=1;align=center;verticalAlign=middle;resizable=0;points=[];autosize=1;strokeColor=none;fillColor=none;" parent="1" vertex="1">
          <mxGeometry x="880" y="290" width="50" height="30" as="geometry" />
        </mxCell>
        <mxCell id="vsQ8uhbUfWxWedc5qAsu-17" style="edgeStyle=orthogonalEdgeStyle;rounded=0;orthogonalLoop=1;jettySize=auto;html=1;exitX=0.5;exitY=1;exitDx=0;exitDy=0;" parent="1" source="lBq8-uqIJ8_SC7uOZpQ2-4" target="lBq8-uqIJ8_SC7uOZpQ2-4" edge="1">
          <mxGeometry relative="1" as="geometry" />
        </mxCell>
        <mxCell id="vsQ8uhbUfWxWedc5qAsu-20" value="&lt;font style=&quot;font-size: 25px;&quot;&gt;Схема инфраструктуры&lt;/font&gt;" style="text;html=1;align=center;verticalAlign=middle;resizable=0;points=[];autosize=1;strokeColor=none;fillColor=none;" parent="1" vertex="1">
          <mxGeometry x="380" y="15" width="300" height="40" as="geometry" />
        </mxCell>
        <mxCell id="UUX9XVSMIbeHFRxq0pAp-1" value="" style="ellipse;shape=cloud;whiteSpace=wrap;html=1;" vertex="1" parent="1">
          <mxGeometry x="-10" y="380" width="610" height="310" as="geometry" />
        </mxCell>
        <mxCell id="UUX9XVSMIbeHFRxq0pAp-2" value="Ubuntu Server&lt;br style=&quot;border-color: var(--border-color);&quot;&gt;ip 62.109.2.192" style="text;html=1;align=center;verticalAlign=middle;resizable=0;points=[];autosize=1;strokeColor=none;fillColor=none;" vertex="1" parent="1">
          <mxGeometry x="20" y="405" width="110" height="40" as="geometry" />
        </mxCell>
        <mxCell id="lBq8-uqIJ8_SC7uOZpQ2-4" value="&lt;font style=&quot;font-size: 17px;&quot;&gt;OpenVPN Server&lt;br&gt;port 1194&lt;br&gt;&lt;/font&gt;" style="rounded=0;whiteSpace=wrap;html=1;" parent="1" vertex="1">
          <mxGeometry x="170" y="440" width="180" height="50" as="geometry" />
        </mxCell>
        <mxCell id="lBq8-uqIJ8_SC7uOZpQ2-9" value="" style="endArrow=classic;startArrow=classic;html=1;rounded=0;exitX=0.921;exitY=0.545;exitDx=0;exitDy=0;exitPerimeter=0;" parent="1" source="UUX9XVSMIbeHFRxq0pAp-1" target="lBq8-uqIJ8_SC7uOZpQ2-3" edge="1">
          <mxGeometry width="50" height="50" relative="1" as="geometry">
            <mxPoint x="620" y="550" as="sourcePoint" />
            <mxPoint x="670" y="500" as="targetPoint" />
          </mxGeometry>
        </mxCell>
        <mxCell id="UUX9XVSMIbeHFRxq0pAp-6" value="Удостоверяющий центр" style="rounded=0;whiteSpace=wrap;html=1;" vertex="1" parent="1">
          <mxGeometry x="390" y="460" width="120" height="60" as="geometry" />
        </mxCell>
        <mxCell id="UUX9XVSMIbeHFRxq0pAp-7" value="Мониторинг&amp;nbsp;&lt;br&gt;Prometheus" style="ellipse;whiteSpace=wrap;html=1;aspect=fixed;" vertex="1" parent="1">
          <mxGeometry x="230" y="530" width="80" height="80" as="geometry" />
        </mxCell>
      </root>
    </mxGraphModel>
  </diagram>
</mxfile>
